<?xml version="1.0" encoding="UTF-8" standalone="no"?>
<!-- Generator: Adobe Illustrator 16.0.0, SVG Export Plug-In . SVG Version: 6.00 Build 0)  -->

<svg
   xmlns:dc="http://purl.org/dc/elements/1.1/"
   xmlns:cc="http://creativecommons.org/ns#"
   xmlns:rdf="http://www.w3.org/1999/02/22-rdf-syntax-ns#"
   xmlns:svg="http://www.w3.org/2000/svg"
   xmlns="http://www.w3.org/2000/svg"
   xmlns:sodipodi="http://sodipodi.sourceforge.net/DTD/sodipodi-0.dtd"
   xmlns:inkscape="http://www.inkscape.org/namespaces/inkscape"
   version="1.1"
   id="Capa_1"
   x="0px"
   y="0px"
   width="27.021px"
   height="23.94px"
   viewBox="0 0 27.021 23.94"
   style="enable-background:new 0 0 27.021 23.94;"
   xml:space="preserve"
   inkscape:version="0.48.5 r10040"
   sodipodi:docname="dwelling1.svg"><metadata
   id="metadata43"><rdf:RDF><cc:Work
       rdf:about=""><dc:format>image/svg+xml</dc:format><dc:type
         rdf:resource="http://purl.org/dc/dcmitype/StillImage" /></cc:Work></rdf:RDF></metadata><defs
   id="defs41" /><sodipodi:namedview
   pagecolor="#ffffff"
   bordercolor="#666666"
   borderopacity="1"
   objecttolerance="10"
   gridtolerance="10"
   guidetolerance="10"
   inkscape:pageopacity="0"
   inkscape:pageshadow="2"
   inkscape:window-width="1600"
   inkscape:window-height="847"
   id="namedview39"
   showgrid="false"
   inkscape:zoom="9.8579781"
   inkscape:cx="13.5105"
   inkscape:cy="11.97"
   inkscape:window-x="-8"
   inkscape:window-y="-8"
   inkscape:window-maximized="1"
   inkscape:current-layer="Capa_1" />
<path
   style="fill:#000000;"
   d="M3.674,23.336c0,0-0.024,0.604,0.566,0.604c0.734,0,6.811-0.008,6.811-0.008l0.01-5.581  c0,0-0.096-0.92,0.797-0.92h2.826c1.056,0,0.991,0.92,0.991,0.92l-0.012,5.563c0,0,5.762,0,6.667,0c0.749,0,0.715-0.752,0.715-0.752  V12.873l-9.396-8.358l-9.975,8.358V23.336z"
   id="path3" />
<path
   style="fill:#000000;"
   d="M0,12.095c0,0,0.847,1.561,2.694,0l11.038-9.338l10.349,9.28c2.138,1.542,2.939,0,2.939,0L13.732,0  L0,12.095z"
   id="path5" />
<polygon
   style="fill:#000000;"
   points="23.83,2.735 21.168,2.735 21.179,5.963 23.83,8.212 "
   id="polygon7" />
<g
   id="g9">
</g>
<g
   id="g11">
</g>
<g
   id="g13">
</g>
<g
   id="g15">
</g>
<g
   id="g17">
</g>
<g
   id="g19">
</g>
<g
   id="g21">
</g>
<g
   id="g23">
</g>
<g
   id="g25">
</g>
<g
   id="g27">
</g>
<g
   id="g29">
</g>
<g
   id="g31">
</g>
<g
   id="g33">
</g>
<g
   id="g35">
</g>
<g
   id="g37">
</g>
<path
   style="fill:#ffffff"
   d="M 4.0765167,23.813727 3.822915,23.680436 3.8039231,18.256341 3.7849313,12.832246 8.7186715,8.7137783 13.652412,4.5953105 l 4.6949,4.1691881 4.694902,4.1691884 -0.02351,5.238987 c -0.02239,4.991454 -0.03263,5.249071 -0.216748,5.452436 -0.18918,0.208962 -0.265433,0.21345 -3.626504,0.21345 l -3.433261,0 0,-2.845377 c 0,-3.264514 -0.01931,-3.359378 -0.722145,-3.548633 -0.247853,-0.06674 -1.047416,-0.09905 -1.974879,-0.07981 -2.201033,0.04567 -2.012329,-0.275088 -2.049656,3.483991 l -0.02969,2.989828 -2.962812,0.0011 c -1.6295466,6.14e-4 -3.1225809,0.02502 -3.3178542,0.05423 -0.2013384,0.03012 -0.464831,-0.0046 -0.6086441,-0.08018 z"
   id="path3020"
   inkscape:connector-curvature="0" /><path
   style="fill:#ffffff"
   d="M 0.51276091,12.532753 C 0.3659474,12.449777 0.2194268,12.31309 0.18715959,12.229003 0.12503182,12.0671 0.25784102,11.946819 9.0249435,4.2249296 L 13.719769,0.08982085 14.156882,0.47603332 C 17.22091,3.1832624 26.894976,12.037801 26.870142,12.112303 c -0.0873,0.261886 -0.614069,0.517062 -1.067398,0.517062 -0.923348,0 -1.270278,-0.266718 -6.792676,-5.222154 -2.861334,-2.5675719 -5.237027,-4.6683126 -5.279319,-4.6683126 -0.04229,0 -2.551945,2.0940379 -5.5770081,4.6534177 -3.0250625,2.5593797 -5.6844688,4.7811759 -5.9097918,4.9373249 -0.494663,0.342801 -1.31394896,0.438924 -1.73118819,0.203112 l 0,0 z"
   id="path3022"
   inkscape:connector-curvature="0" /><path
   style="fill:#ffffff"
   d="m 22.461157,6.9740468 -1.236858,-1.039767 -0.0022,-1.5976907 -0.0022,-1.5976907 1.268008,0 1.268009,0 0,2.6374577 c 0,1.4506017 -0.01305,2.6374576 -0.029,2.6374576 -0.01595,0 -0.585583,-0.4678951 -1.265855,-1.0397669 z"
   id="path3024"
   inkscape:connector-curvature="0" /></svg>