<?xml version="1.0" encoding="UTF-8" standalone="no"?>
<!-- Generator: Adobe Illustrator 16.0.0, SVG Export Plug-In . SVG Version: 6.00 Build 0)  -->

<svg
   xmlns:dc="http://purl.org/dc/elements/1.1/"
   xmlns:cc="http://creativecommons.org/ns#"
   xmlns:rdf="http://www.w3.org/1999/02/22-rdf-syntax-ns#"
   xmlns:svg="http://www.w3.org/2000/svg"
   xmlns="http://www.w3.org/2000/svg"
   xmlns:sodipodi="http://sodipodi.sourceforge.net/DTD/sodipodi-0.dtd"
   xmlns:inkscape="http://www.inkscape.org/namespaces/inkscape"
   version="1.1"
   id="Layer_2"
   x="0px"
   y="0px"
   width="100px"
   height="100px"
   viewBox="0 0 100 100"
   enable-background="new 0 0 100 100"
   xml:space="preserve"
   inkscape:version="0.48.5 r10040"
   sodipodi:docname="twitter38.svg"><metadata
   id="metadata9"><rdf:RDF><cc:Work
       rdf:about=""><dc:format>image/svg+xml</dc:format><dc:type
         rdf:resource="http://purl.org/dc/dcmitype/StillImage" /></cc:Work></rdf:RDF></metadata><defs
   id="defs7" /><sodipodi:namedview
   pagecolor="#ffffff"
   bordercolor="#666666"
   borderopacity="1"
   objecttolerance="10"
   gridtolerance="10"
   guidetolerance="10"
   inkscape:pageopacity="0"
   inkscape:pageshadow="2"
   inkscape:window-width="1600"
   inkscape:window-height="847"
   id="namedview5"
   showgrid="false"
   inkscape:zoom="2.36"
   inkscape:cx="50"
   inkscape:cy="50"
   inkscape:window-x="-8"
   inkscape:window-y="-8"
   inkscape:window-maximized="1"
   inkscape:current-layer="Layer_2" />
<path
   d="M92,3H8C5.239,3,3,5.239,3,8v84c0,2.761,2.239,5,5,5h84c2.761,0,5-2.239,5-5V8C97,5.239,94.761,3,92,3z M43.653,66.015  c1.754,1.81,3.885,2.715,6.39,2.715h18.036c2.5,0,4.65,0.925,6.439,2.771c1.79,1.845,2.684,4.056,2.684,6.637  s-0.894,4.799-2.684,6.64c-1.789,1.843-3.932,2.765-6.438,2.765h-18.03c-7.51,0-13.929-2.749-19.257-8.251  c-5.334-5.5-7.998-12.125-7.998-19.876V21.872c0-2.655,0.889-4.89,2.664-6.701c1.775-1.808,3.945-2.713,6.505-2.713  c2.483,0,4.623,0.921,6.394,2.77c1.777,1.841,2.667,4.053,2.667,6.637v9.404h27.028c2.511,0,4.664,0.924,6.459,2.769  c1.798,1.843,2.691,4.057,2.691,6.64c0,2.579-0.894,4.793-2.685,6.637c-1.789,1.843-3.938,2.766-6.44,2.766H41.024v9.325  C41.024,61.996,41.898,64.198,43.653,66.015z"
   id="path3" />
<path
   style="fill:#ffffff"
   d="m 4.8305085,95.169492 -1.440678,-1.440678 0,-43.728814 0,-43.7288136 1.440678,-1.4406779 1.4406779,-1.440678 43.7288136,0 43.728814,0 1.440678,1.440678 1.440677,1.4406779 0,43.7288136 0,43.728814 -1.440677,1.440678 -1.440678,1.440677 -43.728814,0 -43.7288136,0 -1.4406779,-1.440677 0,0 z m 66.6873385,-8.1157 c 4.225242,-1.764983 6.61178,-6.483267 5.588602,-11.048894 -0.519864,-2.319724 -1.847004,-4.25389 -4.097381,-5.971479 L 71.466331,68.855932 59.567911,68.637941 C 46.230229,68.393581 46.214869,68.390314 43.499757,65.218314 41.638023,63.043297 41.101695,60.730466 41.101695,54.877047 l 0,-4.403272 14.724576,-0.130957 c 14.384882,-0.127932 14.766254,-0.153212 16.531102,-1.095852 6.464381,-3.452741 6.588263,-13.168328 0.215674,-16.914222 L 70.550847,31.144068 55.856415,31.013273 41.161983,30.882478 41.025906,24.624396 C 40.89515,18.610949 40.844138,18.297347 39.720958,16.602029 36.220004,11.31772 29.19093,10.805522 25.030883,15.531584 c -2.601664,2.955647 -2.659022,3.603201 -2.462386,27.799608 0.144763,17.813249 0.282217,21.651778 0.842218,23.5198 3.038273,10.134877 10.394745,17.512817 19.96303,20.021279 2.592789,0.679737 4.705077,0.796263 14.796645,0.816263 9.722407,0.01928 12.046377,-0.09125 13.347457,-0.634742 z"
   id="path2986"
   inkscape:connector-curvature="0" /></svg>