<?xml version="1.0" encoding="UTF-8" standalone="no"?>
<!-- Generator: Adobe Illustrator 16.0.4, SVG Export Plug-In . SVG Version: 6.00 Build 0)  -->

<svg
   xmlns:dc="http://purl.org/dc/elements/1.1/"
   xmlns:cc="http://creativecommons.org/ns#"
   xmlns:rdf="http://www.w3.org/1999/02/22-rdf-syntax-ns#"
   xmlns:svg="http://www.w3.org/2000/svg"
   xmlns="http://www.w3.org/2000/svg"
   xmlns:sodipodi="http://sodipodi.sourceforge.net/DTD/sodipodi-0.dtd"
   xmlns:inkscape="http://www.inkscape.org/namespaces/inkscape"
   version="1.1"
   id="Capa_1"
   x="0px"
   y="0px"
   width="512px"
   height="512px"
   viewBox="0 0 512 512"
   enable-background="new 0 0 512 512"
   xml:space="preserve"
   inkscape:version="0.48.5 r10040"
   sodipodi:docname="address17.svg"><metadata
   id="metadata9"><rdf:RDF><cc:Work
       rdf:about=""><dc:format>image/svg+xml</dc:format><dc:type
         rdf:resource="http://purl.org/dc/dcmitype/StillImage" /></cc:Work></rdf:RDF></metadata><defs
   id="defs7" /><sodipodi:namedview
   pagecolor="#ffffff"
   bordercolor="#666666"
   borderopacity="1"
   objecttolerance="10"
   gridtolerance="10"
   guidetolerance="10"
   inkscape:pageopacity="0"
   inkscape:pageshadow="2"
   inkscape:window-width="1600"
   inkscape:window-height="847"
   id="namedview5"
   showgrid="false"
   inkscape:zoom="0.4609375"
   inkscape:cx="256"
   inkscape:cy="256"
   inkscape:window-x="-8"
   inkscape:window-y="-8"
   inkscape:window-maximized="1"
   inkscape:current-layer="Capa_1" />
<path
   d="M480,128c17.673,0,32-14.327,32-32V32h-64V0H32C14.4,0,0,14.399,0,32v448c0,17.6,14.398,32,32,32h416V384h32  c17.673,0,32-14.327,32-32v-64h-64v-32h32c17.673,0,32-14.327,32-32v-64h-64v-32H480z M288,128.165  c35.255,0,63.835,28.58,63.835,63.835s-28.58,63.835-63.835,63.835s-63.835-28.58-63.835-63.835S252.745,128.165,288,128.165z   M128,480H96V32h32V480z M384,384H192v-32c0-35.348,28.654-64,64-64l0,0h64c35.348,0,64,28.652,64,64V384z"
   id="path3" />
<path
   style="fill:#ffffff"
   d="M 26.630613,509.89355 C 16.675392,507.52829 9.3637983,502.20151 4.9265033,494.08126 1.3185451,487.47869 1.0847458,472.9897 1.0847458,256 1.0847458,27.518479 1.1338496,24.865569 5.5004961,17.432699 7.9291585,13.29865 13.29865,7.9291585 17.4327,5.5004961 24.833979,1.1524085 28.182057,1.0756404 235.9322,0.49052659 l 210.98305,-0.59421915 0,16.32303256 0,16.323033 32.76534,0 32.76533,0 -0.76533,35.254237 c -0.66641,30.696947 -1.33615,36.22588 -5.18108,42.77069 -7.01847,11.94676 -15.76139,15.7317 -39.16706,16.95597 l -20.4172,1.06795 0,15.97558 0,15.97557 32.76534,0 32.76533,0 -0.76533,35.25424 c -0.66641,30.69694 -1.33615,36.22589 -5.18108,42.7707 -7.01847,11.94674 -15.76139,15.7317 -39.16706,16.95597 l -20.4172,1.06795 0,15.97557 0,15.97557 32.76534,0 32.76533,0 -0.76533,35.25424 c -0.66641,30.69694 -1.33615,36.22589 -5.18108,42.7707 -7.01847,11.94674 -15.76139,15.7317 -39.16706,16.95597 l -20.4172,1.06795 0,63.70438 0,63.70439 -206.64406,-0.22207 C 126.61695,511.65579 30.478692,510.80782 26.630613,509.89355 l 0,0 z M 128,256 l 0,-225.627119 -16.27119,0 -16.271183,0 0,225.627119 0,225.62712 16.271183,0 16.27119,0 L 128,256 z m 256,105.30172 c 0,-28.11726 -4.41092,-41.64487 -17.87756,-54.82755 -16.57698,-16.22744 -25.26664,-18.68656 -69.62997,-19.70475 -44.79774,-1.02816 -60.6377,1.2372 -75.70625,10.82715 -21.10141,13.42942 -29.87097,32.86068 -29.87097,66.18702 l 0,20.21641 96.54238,0 96.54237,0 0,-22.69828 z M 310.81522,252.58283 c 13.63152,-4.64473 28.35484,-18.15604 35.33791,-32.42893 4.70875,-9.62435 5.7866,-14.86844 5.7866,-28.1539 0,-13.28546 -1.07785,-18.52955 -5.7866,-28.15391 -7.16884,-14.65259 -21.93796,-27.94915 -36.36822,-32.74211 -14.65099,-4.86628 -38.37028,-3.40532 -51.16256,3.15129 -50.0127,25.6337 -45.28189,99.76027 7.5699,118.61211 11.21184,3.9992 32.44832,3.86378 44.62297,-0.28455 l 0,0 z"
   id="path2986"
   inkscape:connector-curvature="0" /></svg>