<?xml version="1.0" encoding="UTF-8" standalone="no"?>
<!-- Generator: Adobe Illustrator 15.0.0, SVG Export Plug-In . SVG Version: 6.00 Build 0)  -->

<svg
   xmlns:dc="http://purl.org/dc/elements/1.1/"
   xmlns:cc="http://creativecommons.org/ns#"
   xmlns:rdf="http://www.w3.org/1999/02/22-rdf-syntax-ns#"
   xmlns:svg="http://www.w3.org/2000/svg"
   xmlns="http://www.w3.org/2000/svg"
   xmlns:sodipodi="http://sodipodi.sourceforge.net/DTD/sodipodi-0.dtd"
   xmlns:inkscape="http://www.inkscape.org/namespaces/inkscape"
   version="1.1"
   id="Icons"
   x="0px"
   y="0px"
   width="100px"
   height="100px"
   viewBox="0 0 100 100"
   style="enable-background:new 0 0 100 100;"
   xml:space="preserve"
   inkscape:version="0.48.5 r10040"
   sodipodi:docname="facebook29.svg"><metadata
   id="metadata8"><rdf:RDF><cc:Work
       rdf:about=""><dc:format>image/svg+xml</dc:format><dc:type
         rdf:resource="http://purl.org/dc/dcmitype/StillImage" /></cc:Work></rdf:RDF></metadata><defs
   id="defs6" /><sodipodi:namedview
   pagecolor="#ffffff"
   bordercolor="#666666"
   borderopacity="1"
   objecttolerance="10"
   gridtolerance="10"
   guidetolerance="10"
   inkscape:pageopacity="0"
   inkscape:pageshadow="2"
   inkscape:window-width="1600"
   inkscape:window-height="847"
   id="namedview4"
   showgrid="false"
   inkscape:zoom="2.36"
   inkscape:cx="50"
   inkscape:cy="50"
   inkscape:window-x="-8"
   inkscape:window-y="-8"
   inkscape:window-maximized="1"
   inkscape:current-layer="Icons" />
<path
   id="Facebook__x28_alt_x29_"
   d="M95,20.001C95,12.119,87.884,5,80,5h-60C12.116,5,5,12.119,5,20.001v59.998  C5,87.881,12.116,95,20.001,95H50V61H39V46h11v-5.844C50,30.077,57.569,21,66.875,21H79v15H66.875C65.548,36,64,37.611,64,40.024V46  h15v15H64v34h16c7.884,0,15-7.119,15-15.001V20.001z" />
<path
   style="fill:#ffffff"
   d="M 17.767633,94.487822 C 13.254645,93.723695 8.6363881,89.996911 6.4828419,85.381356 l -1.1862317,-2.542373 0,-32.838983 0,-32.838983 1.1954665,-2.586684 C 8.0043064,11.302253 11.281773,8.0387556 14.618644,6.4824014 l 2.542373,-1.1857912 32.838983,0 32.838983,0 2.586686,1.1954665 c 3.272077,1.5122297 6.535577,4.7896963 8.091928,8.1265673 l 1.185793,2.542373 0,32.838983 0,32.838983 -1.185793,2.542373 c -1.564707,3.354788 -4.822283,6.619754 -8.091928,8.110305 -2.527677,1.152301 -2.796927,1.183051 -11.802788,1.348042 l -9.216101,0.168839 0,-16.995796 0,-16.995797 7.415254,0 7.415254,0 0,-7.627118 0,-7.627119 -7.415254,0 -7.415254,0 0,-3.766617 c 0,-5.745952 -0.01712,-5.733677 8.224322,-5.903041 l 6.606186,-0.13576 0,-7.64298 0,-7.642981 -7.944915,0.165946 c -7.939619,0.165835 -7.946801,0.166858 -10.773619,1.535368 -3.73444,1.807903 -7.436991,5.782148 -9.080025,9.746311 -1.025055,2.473169 -1.198903,3.534288 -1.350191,8.241211 l -0.173644,5.402543 -5.465921,0 -5.465922,0 0,7.627119 0,7.627118 5.508474,0 5.508475,0 0,16.949153 0,16.949152 -15.148305,-0.04984 C 26.520127,94.838 18.832299,94.668089 17.767633,94.487822 l 0,0 z"
   id="path2985"
   inkscape:connector-curvature="0" /></svg>