<?xml version="1.0" encoding="UTF-8" standalone="no"?>
<!-- Generator: Adobe Illustrator 15.0.0, SVG Export Plug-In . SVG Version: 6.00 Build 0)  -->

<svg
   xmlns:dc="http://purl.org/dc/elements/1.1/"
   xmlns:cc="http://creativecommons.org/ns#"
   xmlns:rdf="http://www.w3.org/1999/02/22-rdf-syntax-ns#"
   xmlns:svg="http://www.w3.org/2000/svg"
   xmlns="http://www.w3.org/2000/svg"
   xmlns:sodipodi="http://sodipodi.sourceforge.net/DTD/sodipodi-0.dtd"
   xmlns:inkscape="http://www.inkscape.org/namespaces/inkscape"
   version="1.1"
   id="Layer_1"
   x="0px"
   y="0px"
   width="26px"
   height="26px"
   viewBox="0 0 26 26"
   enable-background="new 0 0 26 26"
   xml:space="preserve"
   inkscape:version="0.48.5 r10040"
   sodipodi:docname="game65.svg"><metadata
   id="metadata17"><rdf:RDF><cc:Work
       rdf:about=""><dc:format>image/svg+xml</dc:format><dc:type
         rdf:resource="http://purl.org/dc/dcmitype/StillImage" /></cc:Work></rdf:RDF></metadata><defs
   id="defs15" /><sodipodi:namedview
   pagecolor="#ffffff"
   bordercolor="#666666"
   borderopacity="1"
   objecttolerance="10"
   gridtolerance="10"
   guidetolerance="10"
   inkscape:pageopacity="0"
   inkscape:pageshadow="2"
   inkscape:window-width="1600"
   inkscape:window-height="847"
   id="namedview13"
   showgrid="false"
   inkscape:zoom="25.673415"
   inkscape:cx="3.2409424"
   inkscape:cy="18.480237"
   inkscape:window-x="-8"
   inkscape:window-y="-8"
   inkscape:window-maximized="1"
   inkscape:current-layer="Layer_1" />
<g
   id="g3">
	<circle
   fill="#000000"
   cx="3"
   cy="3"
   r="2.813"
   id="circle5" />
</g>
<rect
   fill="none"
   width="26"
   height="26"
   id="rect7" />
<g
   id="g9">
	<path
   fill="#000000"
   d="M4.668,11.8l9.561,9.56c-1.177-0.019-2.352-0.225-3.461-0.667c-0.445-0.084-2.235-0.374-2.918,0.309   c-1.563,1.563-2.991,3.697-3.773,4.479c-0.781,0.781-1.89,0.456-2.938-0.592c-1.049-1.049-1.35-2.18-0.592-2.938   s2.916-2.209,4.48-3.773c0.716-0.717,0.344-2.699,0.287-2.979C4.887,14.108,4.688,12.955,4.668,11.8z M22.058,3.969   c-4.649-4.65-10.759-3.023-14.563,0.782C6.086,6.158,5.201,7.889,4.836,9.703l11.485,11.486c1.814-0.365,3.546-1.248,4.953-2.656   C25.08,14.727,26.71,8.62,22.058,3.969z"
   id="path11" />
</g>
<path
   style="fill:#ffffff"
   d="M 10.585244,15.428852 4.861653,9.7051613 4.9311918,9.4012158 C 5.3417964,7.6065153 6.2636931,6.0004945 7.6664092,4.6362392 10.574811,1.8075822 14.296117,0.59552752 17.596585,1.4019131 c 1.995214,0.4874799 3.807942,1.7015615 5.296121,3.5470976 0.814971,1.0106704 1.455518,2.3091291 1.748561,3.5445225 0.305797,1.2891643 0.305093,2.7092808 -0.002,4.0898338 -0.446303,2.006191 -1.594272,4.059104 -3.210655,5.741614 -1.279946,1.332308 -2.748151,2.208925 -4.512814,2.694453 -0.266081,0.07321 -0.511493,0.133108 -0.545359,0.133108 -0.03387,0 -2.63719,-2.57566 -5.785166,-5.72369 z"
   id="path2994"
   inkscape:connector-curvature="0" /><path
   style="fill:#ffffff"
   d="M 2.7930082,25.866685 C 2.2942801,25.760328 1.7092434,25.40332 1.1891398,24.887951 0.51344699,24.218409 0.16382942,23.560702 0.16382942,22.959118 c 0,-0.394949 0.1045147,-0.656082 0.3830728,-0.957119 0.1213655,-0.131159 0.86728078,-0.755473 1.65758958,-1.387365 1.4750881,-1.179407 1.8306601,-1.477399 2.48561,-2.083096 0.6437429,-0.595334 0.733974,-0.8062 0.7618612,-1.780436 0.021955,-0.766989 -0.05133,-1.364083 -0.2294701,-1.869638 C 4.9610151,14.139401 4.7523642,13.058523 4.7082162,12.217348 l -0.018188,-0.346544 4.7269761,4.726855 c 2.5998368,2.599771 4.7233108,4.729422 4.7188308,4.732557 -0.0045,0.0031 -0.227243,-0.0079 -0.49503,-0.02443 -0.84614,-0.05236 -1.703797,-0.226127 -2.551277,-0.516901 -0.490709,-0.168364 -0.942897,-0.232306 -1.6359334,-0.231332 -0.5927447,8.34e-4 -0.9946437,0.066 -1.3001184,0.210806 -0.3870381,0.183472 -1.2332333,1.149891 -3.3547025,3.831327 -0.5559685,0.702717 -0.8646954,1.012406 -1.1440567,1.147619 -0.2625713,0.127087 -0.6038531,0.174366 -0.8617088,0.119378 l 0,0 z"
   id="path2996"
   inkscape:connector-curvature="0" /><path
   style="fill:#ffffff"
   d="M 2.6566804,5.7697749 C 1.9490592,5.6707962 1.2612671,5.2891271 0.8436237,4.7636754 0.63418125,4.5001682 0.34858361,3.9276858 0.27540843,3.6246836 0.20858361,3.3479768 0.20890208,2.6529783 0.27597957,2.3782581 0.35223395,2.0659533 0.63495552,1.4968222 0.84178519,1.2392664 1.1840867,0.81301327 1.7857688,0.43222301 2.3450741,0.28787063 2.7224893,0.19046267 3.3363193,0.19993214 3.7278274,0.30920215 4.8342158,0.61799551 5.6612476,1.5917094 5.7682057,2.711462 5.8824168,3.9071446 5.2341977,5.036819 4.1457687,5.5389416 3.7166762,5.7368934 3.1023878,5.8321184 2.6566804,5.7697749 l 0,0 z"
   id="path2998"
   inkscape:connector-curvature="0" /></svg>