<?xml version="1.0" encoding="UTF-8" standalone="no"?>
<!-- Generator: Adobe Illustrator 16.0.4, SVG Export Plug-In . SVG Version: 6.00 Build 0)  -->

<svg
   xmlns:dc="http://purl.org/dc/elements/1.1/"
   xmlns:cc="http://creativecommons.org/ns#"
   xmlns:rdf="http://www.w3.org/1999/02/22-rdf-syntax-ns#"
   xmlns:svg="http://www.w3.org/2000/svg"
   xmlns="http://www.w3.org/2000/svg"
   xmlns:sodipodi="http://sodipodi.sourceforge.net/DTD/sodipodi-0.dtd"
   xmlns:inkscape="http://www.inkscape.org/namespaces/inkscape"
   version="1.1"
   id="Layer_1"
   x="0px"
   y="0px"
   width="112px"
   height="83.992px"
   viewBox="0 0 112 83.992"
   enable-background="new 0 0 112 83.992"
   xml:space="preserve"
   inkscape:version="0.48.5 r10040"
   sodipodi:docname="handshake1.svg"><metadata
   id="metadata9"><rdf:RDF><cc:Work
       rdf:about=""><dc:format>image/svg+xml</dc:format><dc:type
         rdf:resource="http://purl.org/dc/dcmitype/StillImage" /></cc:Work></rdf:RDF></metadata><defs
   id="defs7" /><sodipodi:namedview
   pagecolor="#ffffff"
   bordercolor="#666666"
   borderopacity="1"
   objecttolerance="10"
   gridtolerance="10"
   guidetolerance="10"
   inkscape:pageopacity="0"
   inkscape:pageshadow="2"
   inkscape:window-width="1600"
   inkscape:window-height="847"
   id="namedview5"
   showgrid="false"
   inkscape:zoom="2.5535714"
   inkscape:cx="56"
   inkscape:cy="41.995998"
   inkscape:window-x="-8"
   inkscape:window-y="-8"
   inkscape:window-maximized="1"
   inkscape:current-layer="Layer_1" />
<path
   d="M112,10.407v35.177c0,0-7.257,1.479-8.75,1.676c-1.493,0.195-6.17,1.758-9.57-1.619  c-5.231-5.208-23.834-24.393-23.834-24.393s-3.205-3.262-8.357-0.438c-4.704,2.577-11.682,6.346-14.631,7.835  c-1.045,0.76-2.313,1.209-3.686,1.209c-3.557,0-6.439-2.992-6.439-6.684c0-2.893,1.774-5.35,4.254-6.279  c6.709-4.21,20.685-12.35,26.519-15.565c3.562-1.96,6.127-2.128,11.013,2.133c6.021,5.259,11.373,10.042,11.373,10.042  s2.506,1.199,4.531,0.905C98.658,13.781,112,10.407,112,10.407z M37.986,70.01c0.9-2.398,0.598-5.088-1.129-6.926  c-1.553-1.656-3.812-2.092-5.974-1.578c0.603-2.217,0.271-4.578-1.292-6.248c-1.559-1.652-3.812-2.086-5.973-1.572  c0.597-2.217,0.266-4.578-1.293-6.25c-2.445-2.604-6.674-2.49-9.45,0.259c-2.763,2.753-4.536,7.731-2.067,10.653  c2.465,2.92,5.287,1.146,7.448,0.635c-0.597,2.217-2.397,4.283-0.187,7.187c2.207,2.912,5.287,1.148,7.447,0.632  c-0.602,2.215-2.324,4.487-0.19,7.186c2.146,2.697,5.665,1.26,7.983,0.514c-0.896,2.395-2.813,4.965-0.35,7.868  c2.459,2.901,8.148,1.55,10.93-1.199c2.776-2.749,3.039-7.103,0.603-9.707C42.812,69.674,40.301,69.258,37.986,70.01z   M88.604,51.617c-19.979-20.724-10.57-10.966-21.36-22.179c0,0-3.253-3.36-7.532-1.41c-3.005,1.367-6.874,3.229-9.791,4.648  c-3.206,1.735-6.001,2.268-6.585,2.268c-6.183,0-11.2-5.199-11.2-11.61c0-4.158,2.129-7.779,5.301-9.833  c4.461-3.201,14.737-8.876,14.737-8.876s-3.126-4.116-9.987-4.116c-6.854,0-21.172,9.739-21.172,9.739s-4.064,2.702-9.855,0.271  L0,6.487V46.73c0,0,3.184,0.963,6.048,2.171c0.653-1.909,1.685-3.683,3.142-5.138c4.75-4.695,12.619-4.746,16.944-0.131  c1.298,1.396,2.208,3.084,2.675,4.924c1.746,0.56,3.312,1.543,4.586,2.901c1.303,1.386,2.209,3.075,2.68,4.918  c1.746,0.562,3.309,1.545,4.587,2.908c1.433,1.524,2.385,3.383,2.837,5.396c1.814,0.551,3.467,1.562,4.792,2.981  c2.589,2.761,3.519,6.517,2.955,10.14c0,0.002,0,0.002,0,0.002l0,0c0,0.002,0,0.002,0,0.004c0.005,0.006,0.013,0.01,0.019,0.018  c0.098,0.113,1.618,1.887,2.582,2.885c1.918,1.993,5.039,1.988,6.957,0c1.913-1.986,1.92-5.227,0-7.219  c-0.062-0.064-0.137-0.11-0.201-0.171c0.002-0.015,0.01-0.03,0.012-0.044c-6.465-6.706-6.801-7.191-6.161-7.854  c0.639-0.663,1.586,0.798,8.819,8.308c0.033,0.033,0.078,0.061,0.133,0.084c0.145,0.211,0.289,0.423,0.471,0.61  c1.913,1.992,5.039,1.988,6.957,0c1.914-1.987,1.918-5.227,0-7.22c-0.102-0.105-0.216-0.186-0.323-0.28  c-0.094-0.114-0.188-0.229-0.302-0.346c-6.6-6.841-7.35-8.144-6.846-8.666c0.574-0.597,3.648,2.903,10.215,9.712  c0.014,0,0.027-0.004,0.043-0.004c1.924,1.818,4.914,1.773,6.775-0.155c1.791-1.858,1.887-4.803,0.322-6.807  c-0.029-0.134-0.08-0.25-0.165-0.338c-8.311-8.63-7.956-8.759-7.452-9.281s0.541-0.558,8.629,7.832  c0.03,0.034,0.051,0.076,0.084,0.11c1.914,1.992,5.041,1.988,6.959,0c1.912-1.987,1.918-5.228,0-7.221  C88.717,51.707,88.657,51.669,88.604,51.617z"
   id="path3" />
<path
   style="fill:#ffffff"
   d="M 54.968437,81.188714 C 52.707619,79.810135 51.600311,77.904048 51.475944,75.17684 51.281272,70.907937 49.283419,67.543966 45.741387,65.521027 44.166217,64.621412 43.61484,63.997697 42.717673,62.100641 41.568495,59.670707 40.058915,58.134415 37.575474,56.86746 36.532496,56.33537 35.96139,55.708111 35.643825,54.745879 35.034424,52.899375 31.98624,49.583427 30.356516,48.994111 29.33334,48.624127 28.886297,48.131926 28.387734,46.826457 27.438562,44.341086 24.847457,41.874529 22.0939,40.835146 16.290782,38.644654 9.5927926,41.332951 6.6933714,47.016285 L 5.8905433,48.589959 2.9471696,47.544725 0.00379566,46.499495 0.00189785,26.583471 C 1.0538182e-4,7.7734789 0.03805877,6.6824614 0.68531469,6.9377995 5.3444982,8.7758139 13.114748,11.395876 14.5277,11.605335 c 2.907954,0.43108 5.15715,-0.342755 10.725167,-3.6899858 5.387748,-3.2388626 9.470366,-5.249356 13.075166,-6.4388931 4.12261,-1.36040796 10.328476,-0.177315 12.6713,2.4156707 0.656465,0.7265596 0.543533,0.8265067 -3.611338,3.1960867 C 34.339493,14.52996 31.826474,17.341361 32.173206,24.109526 c 0.31555,6.159476 4.862369,10.823798 10.560774,10.833696 2.721118,0.0047 3.6355,-0.320122 11.699586,-4.15646 6.94467,-3.303796 8.411984,-3.624762 10.83434,-2.369947 0.681963,0.353267 6.361694,5.949492 12.621621,12.436055 11.853958,12.283122 12.440999,13.056936 11.912003,15.70191 -0.289113,1.445568 -2.100392,3.292699 -3.489106,3.558166 -2.096973,0.400862 -3.399768,-0.419048 -8.074699,-5.0818 -3.557922,-3.548654 -4.707595,-4.484159 -5.067917,-4.123836 -0.729054,0.729053 -0.0012,1.873313 3.673016,5.774003 1.825894,1.938462 3.610485,4.08845 3.965763,4.777756 1.803604,3.499326 -0.384943,7.1663 -4.277033,7.1663 -1.322062,0 -1.873909,-0.432109 -6.876698,-5.384615 -5.280424,-5.22735 -6.605905,-6.245559 -6.605905,-5.074532 0,0.732742 0.990123,2.005959 5.130309,6.597164 3.634294,4.030202 4.23311,5.3157 3.504527,7.523322 -0.718637,2.177491 -2.118194,3.191808 -4.404067,3.191808 l -1.971866,0 -4.978615,-5.188811 c -2.738244,-2.853846 -5.174557,-5.188812 -5.414033,-5.188812 -0.827539,0 -0.938239,0.821544 -0.252972,1.877363 0.378282,0.582835 1.771237,2.205155 3.095457,3.605155 3.592271,3.797849 4.116435,4.604896 4.116435,6.337994 0,2.108267 -0.968863,3.797732 -2.558887,4.462088 -1.789772,0.747815 -2.881188,0.698907 -4.346802,-0.194779 l 0,0 z"
   id="path2986"
   inkscape:connector-curvature="0" /><path
   style="fill:#ffffff"
   d="m 95.632371,46.597397 c -0.93072,-0.509459 -6.67426,-6.08433 -13.616662,-13.216783 -6.603834,-6.784616 -12.559634,-12.63667 -13.235115,-13.004565 -0.721005,-0.39269 -2.117539,-0.675063 -3.381993,-0.683825 -2.015295,-0.01396 -2.745837,0.299069 -11.356643,4.866259 -9.840337,5.219335 -11.158824,5.635982 -13.691163,4.326459 -3.300973,-1.707 -4.352333,-6.494638 -2.091261,-9.523097 1.13206,-1.516271 27.197379,-17.0257458 31.207608,-18.56925711 3.539766,-1.36243299 5.035534,-0.57881651 13.945445,7.30586451 6.408429,5.6710346 7.688127,6.4775376 10.28637,6.4827746 1.098889,0.0022 7.689433,-1.350287 13.152213,-2.699077 1.64724,-0.406713 3.4796,-0.849788 4.07191,-0.984612 L 112,10.652405 l 0,17.361441 0,17.361443 -5.58042,1.055259 c -6.852982,1.295899 -8.673139,1.324052 -10.787209,0.166849 z"
   id="path2988"
   inkscape:connector-curvature="0" /><path
   style="fill:#ffffff"
   d="m 34.616521,83.118236 c -2.502832,-1.264359 -3.132022,-3.510416 -1.868199,-6.669021 0.350039,-0.874833 0.558232,-1.668807 0.462651,-1.764388 -0.09558,-0.09558 -1.137489,0.02836 -2.315352,0.275416 -2.584398,0.542083 -4.019723,0.237221 -5.278649,-1.121182 -1.116647,-1.204883 -1.238907,-3.109199 -0.359615,-5.601376 0.583147,-1.652815 0.581702,-1.659725 -0.293706,-1.405509 -0.483854,0.140509 -1.812745,0.362586 -2.953091,0.493504 -1.900498,0.218187 -2.169446,0.145973 -3.225893,-0.866167 -1.488602,-1.426172 -1.808409,-3.177396 -1.008806,-5.524103 0.345098,-1.012804 0.548847,-1.920064 0.452778,-2.016134 -0.09607,-0.09607 -0.738636,0.02193 -1.427925,0.262214 -2.364575,0.824295 -4.228543,0.563287 -5.470275,-0.765991 -0.618011,-0.661583 -1.234209,-1.792178 -1.3693303,-2.512434 -0.5783235,-3.082729 2.2384903,-8.226585 5.1773693,-9.454527 4.307376,-1.799737 8.349792,0.735295 8.355445,5.239768 l 0.0026,2.055944 1.704326,0 c 3.287432,0 5.887696,2.837387 5.652381,6.167832 l -0.117595,1.664336 1.575365,0 c 3.651616,0 6.337856,3.107528 5.848721,6.765985 l -0.250137,1.87088 1.541842,-0.24655 c 1.160535,-0.185577 1.948563,-0.03906 3.186454,0.592468 2.369367,1.208761 3.257972,2.814698 3.081587,5.569216 -0.183145,2.860069 -1.49197,4.884341 -4.055367,6.272162 -2.765319,1.497142 -5.045015,1.729284 -7.047559,0.717657 l 0,0 z"
   id="path2990"
   inkscape:connector-curvature="0" /></svg>