<?xml version="1.0" encoding="UTF-8" standalone="no"?>
<!-- Generator: Adobe Illustrator 15.0.0, SVG Export Plug-In . SVG Version: 6.00 Build 0)  -->

<svg
   xmlns:dc="http://purl.org/dc/elements/1.1/"
   xmlns:cc="http://creativecommons.org/ns#"
   xmlns:rdf="http://www.w3.org/1999/02/22-rdf-syntax-ns#"
   xmlns:svg="http://www.w3.org/2000/svg"
   xmlns="http://www.w3.org/2000/svg"
   xmlns:sodipodi="http://sodipodi.sourceforge.net/DTD/sodipodi-0.dtd"
   xmlns:inkscape="http://www.inkscape.org/namespaces/inkscape"
   version="1.1"
   id="Layer_1"
   x="0px"
   y="0px"
   width="26px"
   height="26px"
   viewBox="0 0 26 26"
   enable-background="new 0 0 26 26"
   xml:space="preserve"
   inkscape:version="0.48.5 r10040"
   sodipodi:docname="help1.svg"><metadata
   id="metadata9"><rdf:RDF><cc:Work
       rdf:about=""><dc:format>image/svg+xml</dc:format><dc:type
         rdf:resource="http://purl.org/dc/dcmitype/StillImage" /></cc:Work></rdf:RDF></metadata><defs
   id="defs7" /><sodipodi:namedview
   pagecolor="#ffffff"
   bordercolor="#666666"
   borderopacity="1"
   objecttolerance="10"
   gridtolerance="10"
   guidetolerance="10"
   inkscape:pageopacity="0"
   inkscape:pageshadow="2"
   inkscape:window-width="1600"
   inkscape:window-height="847"
   id="namedview5"
   showgrid="false"
   inkscape:zoom="9.0769231"
   inkscape:cx="13"
   inkscape:cy="13"
   inkscape:window-x="-8"
   inkscape:window-y="-8"
   inkscape:window-maximized="1"
   inkscape:current-layer="Layer_1" />
<path
   d="M13,5.929c-3.905,0-7.071,3.166-7.071,7.071S9.095,20.071,13,20.071s7.071-3.166,7.071-7.071S16.905,5.929,13,5.929z   M12.889,17.44c-0.676,0-1.135-0.498-1.135-1.161c0-0.677,0.472-1.161,1.135-1.161c0.689,0,1.136,0.484,1.148,1.161  C14.037,16.942,13.578,17.44,12.889,17.44z M14.433,12.694c-0.472,0.522-0.663,1.021-0.65,1.594v0.23h-1.696l-0.013-0.332  c-0.038-0.651,0.179-1.314,0.752-2.003c0.409-0.485,0.741-0.893,0.741-1.327c0-0.447-0.294-0.74-0.933-0.766  c-0.42,0-0.931,0.153-1.263,0.383l-0.434-1.391c0.459-0.268,1.225-0.523,2.131-0.523c1.684,0,2.45,0.931,2.45,1.991  C15.518,11.52,14.918,12.158,14.433,12.694z"
   id="path3"
   style="fill:#ffffff" />
</svg>