<?xml version="1.0" encoding="UTF-8" standalone="no"?>
<!-- Generator: Adobe Illustrator 16.0.0, SVG Export Plug-In . SVG Version: 6.00 Build 0)  -->

<svg
   xmlns:dc="http://purl.org/dc/elements/1.1/"
   xmlns:cc="http://creativecommons.org/ns#"
   xmlns:rdf="http://www.w3.org/1999/02/22-rdf-syntax-ns#"
   xmlns:svg="http://www.w3.org/2000/svg"
   xmlns="http://www.w3.org/2000/svg"
   xmlns:sodipodi="http://sodipodi.sourceforge.net/DTD/sodipodi-0.dtd"
   xmlns:inkscape="http://www.inkscape.org/namespaces/inkscape"
   version="1.1"
   id="Layer_1"
   x="0px"
   y="0px"
   width="512px"
   height="512px"
   viewBox="0 0 512 512"
   style="enable-background:new 0 0 512 512;"
   xml:space="preserve"
   inkscape:version="0.48.5 r10040"
   sodipodi:docname="pin56.svg"><metadata
   id="metadata9"><rdf:RDF><cc:Work
       rdf:about=""><dc:format>image/svg+xml</dc:format><dc:type
         rdf:resource="http://purl.org/dc/dcmitype/StillImage" /></cc:Work></rdf:RDF></metadata><defs
   id="defs7" /><sodipodi:namedview
   pagecolor="#ffffff"
   bordercolor="#666666"
   borderopacity="1"
   objecttolerance="10"
   gridtolerance="10"
   guidetolerance="10"
   inkscape:pageopacity="0"
   inkscape:pageshadow="2"
   inkscape:window-width="1600"
   inkscape:window-height="847"
   id="namedview5"
   showgrid="false"
   inkscape:zoom="0.4609375"
   inkscape:cx="256"
   inkscape:cy="256"
   inkscape:window-x="-8"
   inkscape:window-y="-8"
   inkscape:window-maximized="1"
   inkscape:current-layer="Layer_1" />
<path
   d="M256,22.709c-85.1,0-154.334,69.234-154.334,154.333c0,34.275,21.887,90.155,66.908,170.834  c31.846,57.063,63.168,104.643,64.484,106.64L256,489.291l22.941-34.774c1.318-1.998,32.641-49.578,64.484-106.64  c45.023-80.68,66.908-136.559,66.908-170.834C410.334,91.943,341.1,22.709,256,22.709z M256,256c-44.182,0-80-35.817-80-80  s35.818-80,80-80s80,35.817,80,80S300.182,256,256,256z"
   id="path3" />
<path
   style="fill:#ffffff"
   d="M 249.60878,477.80365 C 174.18596,362.55134 120.93824,261.24036 107.37594,207.18644 94.389534,155.42779 114.42559,97.539243 158.39457,59.78248 182.41964,39.151829 223.96238,23.864407 256,23.864407 c 32.03762,0 73.58037,15.287422 97.60542,35.918073 24.67127,21.185551 43.2255,50.69961 51.03139,81.17522 4.76828,18.61625 4.76277,47.19536 -0.013,66.22874 -11.94201,47.59717 -51.33843,125.98166 -111.76538,222.37288 -31.28812,49.90985 -35.50238,56.35307 -36.85841,56.35307 -0.59661,0 -3.47266,-3.64894 -6.39122,-8.10874 l 0,0 z m 41.10308,-228.76598 c 30.31405,-14.93212 46.87859,-43.37567 45.15138,-77.53093 -1.54475,-30.54662 -18.63683,-56.01346 -46.23612,-68.89086 -11.38486,-5.312 -15.60109,-6.073507 -33.62712,-6.073507 -18.02603,0 -22.24226,0.761507 -33.62712,6.073507 -27.5993,12.8774 -44.69137,38.34424 -46.23611,68.89086 -1.84232,36.43112 17.51139,66.91359 50.99265,80.31443 16.16741,6.47098 47.58711,5.09551 63.58244,-2.7835 z"
   id="path2986"
   inkscape:connector-curvature="0" /></svg>