<?xml version="1.0" encoding="UTF-8" standalone="no"?>
<!-- Generator: Adobe Illustrator 16.0.4, SVG Export Plug-In . SVG Version: 6.00 Build 0)  -->

<svg
   xmlns:dc="http://purl.org/dc/elements/1.1/"
   xmlns:cc="http://creativecommons.org/ns#"
   xmlns:rdf="http://www.w3.org/1999/02/22-rdf-syntax-ns#"
   xmlns:svg="http://www.w3.org/2000/svg"
   xmlns="http://www.w3.org/2000/svg"
   xmlns:sodipodi="http://sodipodi.sourceforge.net/DTD/sodipodi-0.dtd"
   xmlns:inkscape="http://www.inkscape.org/namespaces/inkscape"
   version="1.1"
   id="Capa_1"
   x="0px"
   y="0px"
   width="18.889px"
   height="23.316px"
   viewBox="0 0 18.889 23.316"
   enable-background="new 0 0 18.889 23.316"
   xml:space="preserve"
   inkscape:version="0.48.5 r10040"
   sodipodi:docname="register.svg"><metadata
   id="metadata13"><rdf:RDF><cc:Work
       rdf:about=""><dc:format>image/svg+xml</dc:format><dc:type
         rdf:resource="http://purl.org/dc/dcmitype/StillImage" /></cc:Work></rdf:RDF></metadata><defs
   id="defs11" /><sodipodi:namedview
   pagecolor="#ffffff"
   bordercolor="#666666"
   borderopacity="1"
   objecttolerance="10"
   gridtolerance="10"
   guidetolerance="10"
   inkscape:pageopacity="0"
   inkscape:pageshadow="2"
   inkscape:window-width="1600"
   inkscape:window-height="847"
   id="namedview9"
   showgrid="false"
   inkscape:zoom="10.121805"
   inkscape:cx="9.4445"
   inkscape:cy="11.658"
   inkscape:window-x="-8"
   inkscape:window-y="-8"
   inkscape:window-maximized="1"
   inkscape:current-layer="Capa_1" />
<circle
   cx="6.408"
   cy="4.729"
   r="4.729"
   id="circle3" />
<path
   d="M13.29,12.121c-0.614,0-1.203,0.104-1.757,0.287c-1.169-1.499-3.026-2.472-5.125-2.472C2.868,9.937,0,12.693,0,16.097v3.421  h7.994c0.752,2.206,2.84,3.8,5.296,3.8c3.088,0,5.599-2.512,5.599-5.599S16.378,12.121,13.29,12.121z M8.926,17.719  c0-2.406,1.958-4.365,4.364-4.365c2.408,0,4.366,1.959,4.366,4.365c0,2.407-1.958,4.365-4.366,4.365  C10.884,22.084,8.926,20.126,8.926,17.719z"
   id="path5" />
<path
   d="M14.069,14.509h-1.39c-0.001,0.666,0,2.418,0,2.418s-1.508,0-2.254,0.002v1.389c0.746-0.001,2.254-0.001,2.254-0.001  s0,1.75-0.001,2.419h1.39c0.001-0.669,0.001-2.419,0.001-2.419s1.507,0,2.253,0v-1.39c-0.746,0-2.253,0-2.253,0  S14.068,15.175,14.069,14.509z"
   id="path7" />
<path
   style="fill:#ffffff"
   d="M 5.2065829,9.2293305 C 4.447847,9.0252949 3.7714553,8.6301607 3.173405,8.0415896 1.3141343,6.2117886 1.2752082,3.3511384 3.0846117,1.5162529 4.0635534,0.52352468 5.0736523,0.09879661 6.4556414,0.09879661 c 2.5672656,0 4.5800546,2.04064519 4.5800546,4.64344069 0,3.03298 -2.9091024,5.2723287 -5.8291131,4.4870932 z"
   id="path2990"
   inkscape:connector-curvature="0" /><path
   style="fill:#ffffff"
   d="M 12.704788,23.202801 C 10.774632,23.003045 9.0025084,21.707282 8.242133,19.939741 l -0.205118,-0.476809 -3.9890965,0 -3.98909649,0 0,-2.009527 c 0,-1.677808 0.03221679,-2.135493 0.19516723,-2.772623 0.28939114,-1.131508 0.72169643,-1.871082 1.62896156,-2.786773 0.6388539,-0.644787 0.9580552,-0.87997 1.6337526,-1.203726 0.9057559,-0.433989 2.0391861,-0.7118254 2.903876,-0.7118254 1.5345259,0 3.3615817,0.7525304 4.4637406,1.8385324 l 0.658543,0.648889 0.408068,-0.102504 c 1.941351,-0.487654 3.821379,0.05191 5.249103,1.506479 0.812832,0.828117 1.16698,1.442614 1.434709,2.489426 0.485443,1.898064 -0.02457,3.806764 -1.385311,5.184408 -1.25837,1.274007 -2.806105,1.839038 -4.544644,1.659113 z m 1.926534,-1.297118 c 1.308067,-0.418469 2.454162,-1.54461 2.835084,-2.785726 0.479221,-1.561391 0.105924,-3.251675 -0.972824,-4.404945 -1.348569,-1.441729 -3.491746,-1.789322 -5.312893,-0.861678 -0.526607,0.268241 -1.3855776,1.096963 -1.6764815,1.617447 -0.7309825,1.30787 -0.7960941,2.81961 -0.177502,4.121184 0.6327076,1.331273 1.7440495,2.170009 3.2792855,2.474891 0.380737,0.07561 1.58466,-0.0202 2.025331,-0.161173 z"
   id="path2992"
   inkscape:connector-curvature="0" /><path
   style="fill:#ffffff"
   d="m 12.704788,19.462932 0,-1.185559 -1.136161,0 -1.136161,0 0,-0.642178 0,-0.642178 1.136161,0 1.136161,0 0,-1.234958 0,-1.234957 0.642178,0 0.642178,0 0,1.234957 0,1.234958 1.136161,0 1.136161,0 0,0.642178 0,0.642178 -1.136161,0 -1.136161,0 0,1.185559 0,1.18556 -0.642178,0 -0.642178,0 0,-1.18556 z"
   id="path2994"
   inkscape:connector-curvature="0" /></svg>