<?xml version="1.0" encoding="UTF-8" standalone="no"?>
<!-- Generator: Adobe Illustrator 16.0.0, SVG Export Plug-In . SVG Version: 6.00 Build 0)  -->

<svg
   xmlns:dc="http://purl.org/dc/elements/1.1/"
   xmlns:cc="http://creativecommons.org/ns#"
   xmlns:rdf="http://www.w3.org/1999/02/22-rdf-syntax-ns#"
   xmlns:svg="http://www.w3.org/2000/svg"
   xmlns="http://www.w3.org/2000/svg"
   xmlns:sodipodi="http://sodipodi.sourceforge.net/DTD/sodipodi-0.dtd"
   xmlns:inkscape="http://www.inkscape.org/namespaces/inkscape"
   version="1.1"
   x="0px"
   y="0px"
   width="16.893"
   height="16"
   viewBox="0 0 16.893 16"
   xml:space="preserve"
   id="svg2"
   inkscape:version="0.48.5 r10040"
   sodipodi:docname="right3.svg"
   inkscape:export-filename="C:\Users\MSB\Documents\Parakram Latest\Latest Main COPY 4.12 pm- 15th Jan\images\right3.png"
   inkscape:export-xdpi="90"
   inkscape:export-ydpi="90"><metadata
   id="metadata12"><rdf:RDF><cc:Work
       rdf:about=""><dc:format>image/svg+xml</dc:format><dc:type
         rdf:resource="http://purl.org/dc/dcmitype/StillImage" /></cc:Work></rdf:RDF></metadata><defs
   id="defs10" /><sodipodi:namedview
   pagecolor="#ffffff"
   bordercolor="#666666"
   borderopacity="1"
   objecttolerance="10"
   gridtolerance="10"
   guidetolerance="10"
   inkscape:pageopacity="0"
   inkscape:pageshadow="2"
   inkscape:window-width="1600"
   inkscape:window-height="847"
   id="namedview8"
   showgrid="false"
   inkscape:zoom="8.9973315"
   inkscape:cx="8.4464998"
   inkscape:cy="13.115"
   inkscape:window-x="-8"
   inkscape:window-y="-8"
   inkscape:window-maximized="1"
   inkscape:current-layer="svg2" />
<g
   id="c108_arrow"
   transform="matrix(-0.00326846,0.65921601,-0.62288329,-0.00345911,16.715265,2.7981329)">
	<path
   style="fill:#000000"
   d="m 0,0.382 v 5.879 l 8.312,6.555 c 0.183,0.146 0.183,0.453 0,0.6 L 0,19.972 v 5.879 c 0,0.145 0.08,0.278 0.212,0.344 0.132,0.062 0.29,0.044 0.403,-0.046 L 16.756,13.416 c 0.183,-0.146 0.183,-0.453 0,-0.6 L 0.615,0.082 C 0.502,-0.007 0.344,-0.026 0.212,0.039 0.08,0.101 0,0.235 0,0.382 z"
   id="path5"
   inkscape:connector-curvature="0" />
</g>
<g
   id="Capa_1"
   transform="matrix(-0.00326846,0.65921601,-0.62288329,-0.00345911,16.715265,2.7981329)">
</g>
<path
   style="fill:#ffffff"
   d="m 0.57558687,2.7864329 c 0.0877359,-0.049 0.78179613,-0.074 1.89368333,-0.068 l 1.7551849,0.01 2.0579248,2.7957 c 1.7466849,2.3729 2.0846403,2.7958 2.2345714,2.7967 0.1499075,8e-4 0.4925517,-0.4188 2.2635437,-2.7717 l 2.086897,-2.7727 1.772246,0.01 c 1.866526,0.01 2.087632,0.048 1.981893,0.3349 -0.02531,0.069 -1.838389,2.5033 -4.029063,5.4102 C 10.087923,11.854833 8.5653428,13.816533 8.4906741,13.816033 8.3619272,13.815333 0.49471897,3.2127329 0.45797247,2.9904329 c -0.011484,-0.07 0.041444,-0.1612 0.1176144,-0.2038 z"
   id="path2989"
   inkscape:connector-curvature="0" /></svg>