<?xml version="1.0" encoding="UTF-8" standalone="no"?>
<!-- Generator: Adobe Illustrator 17.1.0, SVG Export Plug-In . SVG Version: 6.00 Build 0)  -->

<svg
   xmlns:dc="http://purl.org/dc/elements/1.1/"
   xmlns:cc="http://creativecommons.org/ns#"
   xmlns:rdf="http://www.w3.org/1999/02/22-rdf-syntax-ns#"
   xmlns:svg="http://www.w3.org/2000/svg"
   xmlns="http://www.w3.org/2000/svg"
   xmlns:sodipodi="http://sodipodi.sourceforge.net/DTD/sodipodi-0.dtd"
   xmlns:inkscape="http://www.inkscape.org/namespaces/inkscape"
   version="1.1"
   id="Capa_1"
   x="0px"
   y="0px"
   viewBox="0 0 64 64"
   style="enable-background:new 0 0 64 64;"
   xml:space="preserve"
   inkscape:version="0.48.5 r10040"
   width="100%"
   height="100%"
   sodipodi:docname="squash.svg"><metadata
   id="metadata13"><rdf:RDF><cc:Work
       rdf:about=""><dc:format>image/svg+xml</dc:format><dc:type
         rdf:resource="http://purl.org/dc/dcmitype/StillImage" /></cc:Work></rdf:RDF></metadata><defs
   id="defs11" /><sodipodi:namedview
   pagecolor="#ffffff"
   bordercolor="#666666"
   borderopacity="1"
   objecttolerance="10"
   gridtolerance="10"
   guidetolerance="10"
   inkscape:pageopacity="0"
   inkscape:pageshadow="2"
   inkscape:window-width="1600"
   inkscape:window-height="847"
   id="namedview9"
   showgrid="false"
   inkscape:zoom="3.6875"
   inkscape:cx="32"
   inkscape:cy="32"
   inkscape:window-x="-8"
   inkscape:window-y="-8"
   inkscape:window-maximized="1"
   inkscape:current-layer="Capa_1" />
<g
   id="g3">
	<path
   d="M17.861,20.913c0.43,0.556,0.794,1.155,1.096,1.783c-0.029,0.095-0.017,0.194,0.018,0.288   c-0.614,0.812-0.792,1.918-0.349,2.914l2.789,6.282c0.375,0.847,1.132,1.46,2.036,1.654c0.202,0.044,0.405,0.064,0.607,0.064   c0.704,0,1.393-0.256,1.928-0.735l5.024-4.488l1.995,7.368l-1.093,9.732l-9.028,9.401c-1.267,1.316-1.225,3.409,0.094,4.674   c0.641,0.616,1.466,0.923,2.29,0.923c0.868,0,1.735-0.34,2.384-1.017l9.805-10.208c0.505-0.523,0.82-1.198,0.901-1.921l0.974-8.671   l5.598,5.406v11.223c0,1.825,1.481,3.307,3.307,3.307c1.825,0,3.306-1.482,3.306-3.307V42.961c0-0.897-0.364-1.755-1.009-2.378   l-7.926-7.656c-0.064-0.062-0.14-0.107-0.208-0.164l-3.259-9.56c0.041-0.027,0.083-0.047,0.122-0.077l7.352-5.52   c1.277-0.96,1.535-2.774,0.575-4.052c-0.957-1.277-2.77-1.535-4.05-0.576l-7.077,5.315l-6.734,4.173l0.005,0.019   c-0.146,0.09-0.287,0.187-0.42,0.305l-3.822,3.415l-1.179-2.653c-0.574-1.295-1.981-1.954-3.311-1.636l-0.016-0.021   c-0.087-0.114-0.221-0.167-0.353-0.167c-0.31-0.269-0.916-0.836-1.515-1.609c-0.343-0.448-0.638-0.902-0.873-1.354   c-0.054-0.142-0.532-1.415-0.999-4.046c-0.207-1.164-0.411-2.059-0.659-2.817c0.02-0.065,0.013-0.141-0.033-0.2   c-0.014-0.017-0.031-0.029-0.048-0.041c-0.342-0.967-0.77-1.713-1.397-2.527c-0.783-1.015-1.928-1.707-3.064-1.852   c-1.022-0.13-1.998,0.16-2.895,0.857c-0.857,0.655-1.384,1.554-1.522,2.597c-0.153,1.17,0.206,2.489,0.941,3.44   c1.153,1.495,2.243,2.278,4.857,3.485v0.001c0.001,0.001,0.005,0.003,0.005,0.003c2.564,1.185,3.656,1.994,3.659,1.996   C16.695,19.664,17.232,20.098,17.861,20.913z"
   id="path5" />
	<circle
   cx="30.015"
   cy="13.817"
   r="5.682"
   id="circle7" />
</g>
<path
   style="fill:#ffffff"
   d="m 23.159322,59.552542 c -0.781145,-0.781144 -0.922034,-1.112515 -0.922034,-2.168623 0,-1.245511 0.0042,-1.251046 4.897483,-6.388152 l 4.897483,-5.14156 0.557099,-4.929922 0.5571,-4.92992 -1.020679,-3.759345 c -0.904678,-3.332092 -1.069835,-3.72088 -1.4532,-3.42091 -0.237886,0.186138 -1.573577,1.345212 -2.968201,2.575721 -2.219387,1.958215 -2.663206,2.237288 -3.558031,2.237288 -1.634379,0 -2.227329,-0.708985 -4.053989,-4.847323 -1.63221,-3.697804 -1.658749,-3.796409 -1.341293,-4.983344 0.292411,-1.093293 0.266916,-1.303042 -0.262515,-2.15968 -1.00881,-1.632288 -1.989618,-2.399074 -5.0009,-3.909654 C 10.203435,16.079627 8.5538205,14.746283 7.8279761,13.152542 6.9913193,11.31549 7.1959531,10.143859 8.6202392,8.616438 10.189979,6.9330303 12.503256,7.0654962 14.192725,8.9355369 c 1.393264,1.5421761 1.682463,2.2338721 2.607267,6.2359731 0.475192,2.056397 1.081689,3.96363 1.415323,4.450724 1.141071,1.665927 1.930767,2.343868 2.730245,2.343868 1.453956,0 2.366406,0.731151 3.23869,2.595178 0.448814,0.959093 0.8765,1.743805 0.950414,1.743805 0.07391,0 1.069191,-0.837765 2.211727,-1.861699 1.142536,-1.023934 3.663778,-2.844679 5.602762,-4.0461 1.938983,-1.201421 5.169073,-3.418881 7.177982,-4.927688 2.008906,-1.508808 3.920597,-2.810561 4.248201,-2.892785 0.733315,-0.18405 2.462543,0.602403 2.828642,1.286465 0.468421,0.875251 0.380366,2.360096 -0.177063,2.985761 -0.285141,0.320048 -2.196407,1.849632 -4.247254,3.399077 -2.050847,1.549444 -3.728814,2.917756 -3.728814,3.040692 0,0.122936 0.729869,2.317752 1.621931,4.877369 l 1.621931,4.65385 4.339404,4.229052 c 3.319349,3.234943 4.403915,4.461316 4.613844,5.217107 0.294804,1.061361 0.379997,11.992868 0.106362,13.647805 -0.342691,2.072585 -2.538997,3.345808 -4.316505,2.502326 -1.792811,-0.850744 -1.875658,-1.186945 -1.97098,-7.998335 l -0.08571,-6.12439 -2.818229,-2.808637 c -1.850305,-1.844006 -2.858473,-2.674468 -2.935406,-2.417983 -0.06445,0.214861 -0.351902,2.417096 -0.638791,4.893858 -0.421724,3.640841 -0.63002,4.641019 -1.087701,5.222869 -0.311349,0.395816 -2.869896,3.098186 -5.685661,6.005269 l -5.119573,5.285608 -1.307205,0 c -1.125044,0 -1.435693,-0.128488 -2.22924,-0.922034 l 0,0 z"
   id="path2990"
   inkscape:connector-curvature="0" /><path
   style="fill:#ffffff"
   d="m 27.730511,18.82326 c -1.284729,-0.655294 -2.707408,-2.355078 -3.05663,-3.651992 -0.57993,-2.153692 0.391949,-4.599145 2.365143,-5.9511983 1.406479,-0.9637354 3.86736,-1.0623919 5.499722,-0.2204835 2.658719,1.3712638 3.748709,4.7056418 2.377046,7.2715998 -0.972104,1.818507 -2.530701,2.801554 -4.616287,2.91161 -1.183069,0.06243 -1.952955,-0.04532 -2.568994,-0.359536 l 0,0 z"
   id="path2992"
   inkscape:connector-curvature="0" /></svg>